# xmcd
#
# Track frame offsets:
#	150
#	15830
#	35144
#	57114
#	73341
#	88870
#	106213
#	128561
#	141710
#	158014
#	175556
#	202587
#	220622
#	235217
#	253537
#	270164
#	289943
#	305482
#	322907
#
# Disc length: 4589
#
# Revision: 2
# Processed by: cddbd v1.5.1PL0 Copyright (c) Steve Scherf et al.
# Submitted via: audiograbber 1.83.01
# Normalized: r1:DSETVAR1
#
DISCID=0111eb13
DTITLE=Various Artist - MTV Gold 2001 SE vol. 2 cd 2
DYEAR=2001
DGENRE=Pop
TTITLE0=Alian ant farm - Smooth criminal
TTITLE1=Enrique Iglesias - Hero
TTITLE2=Eminem and Marily manson - The way i am
TTITLE3=US 3 - U can't hold me down
TTITLE4=Danthe Thomas - Miss Califonia
TTITLE5=Kylie Minogue - Can't get you out of my head
TTITLE6=Jennifer Lopez - I'm real
TTITLE7=Superman Lovers - Starlight
TTITLE8=Uncle cracker - Follow me
TTITLE9=Westlife - When you're looking like that
TTITLE10=Groove armada - Superstylin
TTITLE11=Mary J. Blidge - Family affair
TTITLE12=Atomic Kitten - Eternal flame
TTITLE13=Brian Harvey feat. fugees - Loving you
TTITLE14=Tityo - Come along
TTITLE15=Brandy and Ray - Just another day in paradise
TTITLE16=Roger Sanchez - Another chance
TTITLE17=Incubus - Drive
TTITLE18=Natalie Imbruglia - That day
EXTD=
EXTT0=
EXTT1=
EXTT2=
EXTT3=
EXTT4=
EXTT5=
EXTT6=
EXTT7=
EXTT8=
EXTT9=
EXTT10=
EXTT11=
EXTT12=
EXTT13=
EXTT14=
EXTT15=
EXTT16=
EXTT17=
EXTT18=
PLAYORDER=
